<svg xmlns="http://www.w3.org/2000/svg" version="1.1"
    xmlns:xlink="http://www.w3.org/1999/xlink"
    xmlns:svgjs="http://svgjs.com/svgjs" width="512" height="512" x="0" y="0" viewBox="0 0 512 512" style="enable-background: new 0 0 512 512; transform: scale(0.075)" xml:space="preserve">
    <g>
        <path fill="#ffe077" d="M287.062 306.864c6.663 16.808-2.633 29.287-25.086 36.326-25.982 8.145-42.602.499-42.602.499-3.479-2.981-6.27-6.702-7.889-10.97-6.413-16.905 6.439-36.776 28.705-44.383 8.002-2.734 16.178-3.44 23.607-2.53.001-.001 15.989 2.705 23.265 21.058zM260.197 67.968 96.721 87.583c-16.874 2.025-29.574 16.339-29.574 33.334v196.796c-5.722-4.646-13.232-6.8-13.232-6.8-7.429-.91-15.558-.132-23.56 2.602-22.267 7.607-35.118 27.479-28.705 44.383 1.619 4.268 4.312 7.94 7.791 10.921 0 0 16.718 7.696 42.699-.449 15.14-4.746 24.287-11.97 26.604-21.322l5.19-7.592V162.837c0-8.494 6.345-15.65 14.778-16.666l161.485-19.467 16.631-29.88z" data-original="#ffe077"></path>
        <path fill="#ffd05b" d="M82.285 330.349c-4.101-10.81-15.158-17.799-28.37-19.436 3.518 2.993 6.305 6.742 7.937 11.043 6.413 16.905-6.439 36.776-28.705 44.383-8.028 2.743-16.257 3.404-23.705 2.48 10.309 8.772 27.536 11.586 44.138 5.913 22.266-7.607 35.118-27.478 28.705-44.383zM293.77 92.32a25.16 25.16 0 0 0-8.467-18.828c-5.377-4.779-12.541-6.984-19.713-6.172l-5.393.647v58.736l7.389-.891c4.998-.602 9.398 3.299 9.398 8.333V289.59c-3.969-1.896-8.425-3.195-13.185-3.785 3.518 2.993 6.258 6.67 7.89 10.971 6.413 16.905-6.439 36.776-28.705 44.383-8.028 2.743-16.16 3.453-23.608 2.53 10.309 8.772 27.481 11.656 44.041 5.864 24.508-8.572 30.355-26.261 30.355-35.443V92.32z" data-original="#ffd05b"></path>
        <path fill="#ffe077" d="M486.82 205.729a51.107 51.107 0 0 0-2.646-1.421l-61.84-30.941c-8.934-4.47-19.448 2.026-19.448 12.016V385.07c-6.623-5.687-13.232-7.009-13.232-7.009-7.429-.91-15.558-.132-23.56 2.602-22.267 7.608-35.118 27.479-28.705 44.383 1.631 4.3 4.352 7.994 7.868 10.986 0 0 15.898 10.039 42.694 2.546 17.479-4.888 26.774-15.757 27.022-28.17l4.7-4.287V239.64c0-4.056 4.268-6.694 7.896-4.88l59.251 29.626 15.076-21.772z" data-original="#ffe077"></path>
        <g fill="#ffd05b">
            <path d="M418.022 397.497c-4.101-10.81-15.158-17.799-28.37-19.436 3.518 2.993 6.305 6.742 7.937 11.043 6.413 16.905-6.439 36.776-28.705 44.383-8.028 2.743-16.18 3.469-23.629 2.546 10.309 8.772 27.46 11.52 44.061 5.848 22.267-7.609 35.119-27.48 28.706-44.384zM486.82 205.729v58.657l13.033 6.516c5.581 2.79 12.147-1.268 12.147-7.507v-14.049c0-18.035-9.71-34.653-25.18-43.617z" fill="#ffd05b" data-original="#ffd05b"></path>
        </g>
    </g>
</svg>