<svg xmlns="http://www.w3.org/2000/svg" version="1.1"
    xmlns:xlink="http://www.w3.org/1999/xlink"
    xmlns:svgjs="http://svgjs.com/svgjs" width="512" height="512" x="0" y="0" viewBox="0 0 24 24" style="enable-background:new 0 0 512 512" xml:space="preserve" >
    <g>
        <linearGradient id="a" x1="2.2" x2="21.8" y1="12" y2="12" gradientUnits="userSpaceOnUse">
            <stop offset="0" stop-color="#ee0979"></stop>
            <stop offset="1" stop-color="#ff6a00"></stop>
        </linearGradient>
        <path fill="url(#a)" d="M9.2 17.5v-7.3l10.6-2.5V15H17c-1.5 0-2.8 1.1-2.8 2.7s1.3 2.8 2.8 2.8h2c1.5 0 2.7-1.3 2.8-2.8V2.5c0-.3-.2-.6-.4-.8-.3-.2-.6-.3-.9-.2L8 4.5c-.5.1-.8.5-.8 1V17H5c-1.5 0-2.8 1.1-2.8 2.7s1.3 2.8 2.8 2.8h1.5c1.5 0 2.7-1.3 2.8-2.8zm-2 3.1H5c-.5 0-.8-.3-.8-.8s.4-.8.8-.8h2.2zm12.6-2.8c0 .4-.4.8-.8.8h-2c-.5 0-.8-.3-.8-.8s.4-.8.8-.8h2.8zm0-12.1L9.2 8.2V6.3l10.6-2.5z" data-original="url(#a)"></path>
    </g>
</svg>